<?xml version="1.0" encoding="UTF-8"?>
<!DOCTYPE svg PUBLIC "-//W3C//DTD SVG 1.1//EN" "http://www.w3.org/Graphics/SVG/1.1/DTD/svg11.dtd">
<svg xmlns="http://www.w3.org/2000/svg" version="1.1" width="238px" height="250px" style="shape-rendering:geometricPrecision; text-rendering:geometricPrecision; image-rendering:optimizeQuality; fill-rule:evenodd; clip-rule:evenodd" xmlns:xlink="http://www.w3.org/1999/xlink">
<g><path style="opacity:0.999" fill="#f0f8fe" d="M 128.5,68.5 C 121.167,68.5 113.833,68.5 106.5,68.5C 107.315,55.575 107.815,42.575 108,29.5C 108.5,29 109,28.5 109.5,28C 115.22,27.2124 120.886,27.3791 126.5,28.5C 127.286,42.0241 127.953,55.3575 128.5,68.5 Z"/></g>
<g><path style="opacity:1" fill="#eb59d5" d="M 95.5,70.5 C 114.659,69.503 133.993,69.1697 153.5,69.5C 155.749,70.0798 157.415,71.4131 158.5,73.5C 155.837,71.6773 152.837,70.6773 149.5,70.5C 142.833,70.5 136.167,70.5 129.5,70.5C 121.5,70.5 113.5,70.5 105.5,70.5C 102.167,70.5 98.8333,70.5 95.5,70.5 Z"/></g>
<g><path style="opacity:1" fill="#fe50eb" d="M 129.5,70.5 C 136.167,70.5 142.833,70.5 149.5,70.5C 148.574,73.0949 146.907,75.0949 144.5,76.5C 145.908,77.2432 147.241,78.0766 148.5,79C 147.584,79.3742 146.75,79.8742 146,80.5C 145.501,85.1548 145.334,89.8215 145.5,94.5C 147.346,94.2222 148.68,94.8888 149.5,96.5C 147.5,97.1667 145.5,97.8333 143.5,98.5C 143.833,98.8333 144.167,99.1667 144.5,99.5C 147.266,100.094 149.932,100.427 152.5,100.5C 152.5,100.833 152.5,101.167 152.5,101.5C 147.167,101.5 141.833,101.5 136.5,101.5C 135.737,100.732 134.737,100.232 133.5,100C 134.5,99.6667 135.5,99.3333 136.5,99C 133.994,97.7015 131.327,96.7015 128.5,96C 130.101,95.7266 131.601,95.2266 133,94.5C 133.499,89.8452 133.666,85.1785 133.5,80.5C 131.516,80.6168 129.85,79.9501 128.5,78.5C 130.833,77.8333 133.167,77.1667 135.5,76.5C 134.335,75.4164 133.002,74.5831 131.5,74C 132.167,73.6667 132.833,73.3333 133.5,73C 131.934,72.3918 130.6,71.5585 129.5,70.5 Z"/></g>
<g><path style="opacity:1" fill="#f274c5" d="M 106.5,68.5 C 113.833,68.5 121.167,68.5 128.5,68.5C 137.017,68.1739 145.35,68.5073 153.5,69.5C 133.993,69.1697 114.659,69.503 95.5,70.5C 92.5,70.5 89.5,70.5 86.5,70.5C 84.5,70.8333 82.5,71.1667 80.5,71.5C 80.5,72.5 80.5,73.5 80.5,74.5C 82.1033,74.3118 83.4366,74.8118 84.5,76C 82.7505,77.3186 80.7505,77.8186 78.5,77.5C 78.1966,83.1849 78.0299,88.8516 78,94.5C 79.5911,97.6005 82.0911,99.2672 85.5,99.5C 90.8701,101.379 96.5368,102.045 102.5,101.5C 102.5,101.833 102.5,102.167 102.5,102.5C 95.1319,102.683 87.7985,102.35 80.5,101.5C 78.4959,100.327 76.9959,98.6605 76,96.5C 75.0687,88.7276 75.4021,81.0609 77,73.5C 78.5429,71.6217 80.3762,70.1217 82.5,69C 90.4931,68.5003 98.4931,68.3336 106.5,68.5 Z"/></g>
<g><path style="opacity:1" fill="#fc54d5" d="M 95.5,70.5 C 98.8333,70.5 102.167,70.5 105.5,70.5C 107.556,71.2161 109.723,71.8828 112,72.5C 113.243,71.6637 114.41,71.997 115.5,73.5C 114.391,74.9647 114.891,75.9647 117,76.5C 115.776,82.6642 115.276,88.9975 115.5,95.5C 114.448,95.3505 113.448,95.5172 112.5,96C 115.639,96.7543 118.639,97.7543 121.5,99C 120.5,99.3333 119.5,99.6667 118.5,100C 118.833,100.333 119.167,100.667 119.5,101C 125.157,101.499 130.824,101.666 136.5,101.5C 141.833,101.5 147.167,101.5 152.5,101.5C 136.008,102.497 119.342,102.83 102.5,102.5C 102.5,102.167 102.5,101.833 102.5,101.5C 104.648,101.611 104.981,100.944 103.5,99.5C 100.97,98.8681 98.637,97.8681 96.5,96.5C 97.2421,95.7132 98.0754,95.0465 99,94.5C 99.3333,89.5 99.6667,84.5 100,79.5C 100.692,78.9747 101.192,78.3081 101.5,77.5C 97.6546,75.7007 93.6546,74.2007 89.5,73C 90.6086,72.3623 91.7753,71.8623 93,71.5C 96.6207,73.6234 100.454,73.9567 104.5,72.5C 101.358,71.8326 98.3583,71.166 95.5,70.5 Z"/></g>
<g><path style="opacity:1" fill="#fd4ef6" d="M 149.5,70.5 C 152.837,70.6773 155.837,71.6773 158.5,73.5C 158.923,82.6285 158.256,91.6285 156.5,100.5C 155.167,100.5 153.833,100.5 152.5,100.5C 149.932,100.427 147.266,100.094 144.5,99.5C 144.167,99.1667 143.833,98.8333 143.5,98.5C 145.5,97.8333 147.5,97.1667 149.5,96.5C 148.68,94.8888 147.346,94.2222 145.5,94.5C 145.334,89.8215 145.501,85.1548 146,80.5C 146.75,79.8742 147.584,79.3742 148.5,79C 147.241,78.0766 145.908,77.2432 144.5,76.5C 146.907,75.0949 148.574,73.0949 149.5,70.5 Z"/></g>
<g><path style="opacity:1" fill="#fe56c9" d="M 86.5,70.5 C 89.5,70.5 92.5,70.5 95.5,70.5C 98.3583,71.166 101.358,71.8326 104.5,72.5C 100.454,73.9567 96.6207,73.6234 93,71.5C 91.7753,71.8623 90.6086,72.3623 89.5,73C 93.6546,74.2007 97.6546,75.7007 101.5,77.5C 101.192,78.3081 100.692,78.9747 100,79.5C 99.6667,84.5 99.3333,89.5 99,94.5C 98.0754,95.0465 97.2421,95.7132 96.5,96.5C 98.637,97.8681 100.97,98.8681 103.5,99.5C 104.981,100.944 104.648,101.611 102.5,101.5C 96.5368,102.045 90.8701,101.379 85.5,99.5C 84.0728,97.0997 84.5728,96.433 87,97.5C 87.7927,91.1151 87.626,84.7818 86.5,78.5C 87.376,77.7492 88.376,77.2492 89.5,77C 86.6261,75.3976 85.6261,73.231 86.5,70.5 Z"/></g>
<g><path style="opacity:1" fill="#fe51e1" d="M 105.5,70.5 C 113.5,70.5 121.5,70.5 129.5,70.5C 130.6,71.5585 131.934,72.3918 133.5,73C 132.833,73.3333 132.167,73.6667 131.5,74C 133.002,74.5831 134.335,75.4164 135.5,76.5C 133.167,77.1667 130.833,77.8333 128.5,78.5C 129.85,79.9501 131.516,80.6168 133.5,80.5C 133.666,85.1785 133.499,89.8452 133,94.5C 131.601,95.2266 130.101,95.7266 128.5,96C 131.327,96.7015 133.994,97.7015 136.5,99C 135.5,99.3333 134.5,99.6667 133.5,100C 134.737,100.232 135.737,100.732 136.5,101.5C 130.824,101.666 125.157,101.499 119.5,101C 119.167,100.667 118.833,100.333 118.5,100C 119.5,99.6667 120.5,99.3333 121.5,99C 118.639,97.7543 115.639,96.7543 112.5,96C 113.448,95.5172 114.448,95.3505 115.5,95.5C 115.276,88.9975 115.776,82.6642 117,76.5C 114.891,75.9647 114.391,74.9647 115.5,73.5C 114.41,71.997 113.243,71.6637 112,72.5C 109.723,71.8828 107.556,71.2161 105.5,70.5 Z"/></g>
<g><path style="opacity:1" fill="#ee78eb" d="M 158.5,73.5 C 159.222,73.9175 159.722,74.5842 160,75.5C 160.667,82.5 160.667,89.5 160,96.5C 159.34,98.3237 158.173,99.657 156.5,100.5C 158.256,91.6285 158.923,82.6285 158.5,73.5 Z"/></g>
<g><path style="opacity:1" fill="#fe57c1" d="M 86.5,70.5 C 85.6261,73.231 86.6261,75.3976 89.5,77C 88.376,77.2492 87.376,77.7492 86.5,78.5C 87.626,84.7818 87.7927,91.1151 87,97.5C 84.5728,96.433 84.0728,97.0997 85.5,99.5C 82.0911,99.2672 79.5911,97.6005 78,94.5C 78.0299,88.8516 78.1966,83.1849 78.5,77.5C 80.7505,77.8186 82.7505,77.3186 84.5,76C 83.4366,74.8118 82.1033,74.3118 80.5,74.5C 80.5,73.5 80.5,72.5 80.5,71.5C 82.5,71.1667 84.5,70.8333 86.5,70.5 Z"/></g>
<g><path style="opacity:0.72" fill="#f894eb" d="M 152.5,100.5 C 153.833,100.5 155.167,100.5 156.5,100.5C 155.341,102.25 153.674,103.25 151.5,103.5C 129.167,103.5 106.833,103.5 84.5,103.5C 82.847,103.34 81.5137,102.674 80.5,101.5C 87.7985,102.35 95.1319,102.683 102.5,102.5C 119.342,102.83 136.008,102.497 152.5,101.5C 152.5,101.167 152.5,100.833 152.5,100.5 Z"/></g>
<g><path style="opacity:0.082" fill="#f2f8fa" d="M 84.5,103.5 C 106.833,103.5 129.167,103.5 151.5,103.5C 148.062,104.823 144.229,105.49 140,105.5C 135.558,105.113 131.392,105.113 127.5,105.5C 138.659,106.167 149.659,106.833 160.5,107.5C 153.833,107.5 147.167,107.5 140.5,107.5C 133.5,107.5 126.5,107.5 119.5,107.5C 114.167,107.5 108.833,107.5 103.5,107.5C 97.8333,107.5 92.1667,107.5 86.5,107.5C 82.5,107.5 78.5,107.5 74.5,107.5C 85.6593,106.669 96.9926,106.169 108.5,106C 100.487,104.864 92.4866,104.031 84.5,103.5 Z"/></g>
<g><path style="opacity:1" fill="#84c982" d="M 140.5,108.5 C 140.5,108.167 140.5,107.833 140.5,107.5C 147.167,107.5 153.833,107.5 160.5,107.5C 163.337,107.684 165.337,109.018 166.5,111.5C 164.5,110.833 162.5,110.167 160.5,109.5C 155.695,108.513 150.695,108.179 145.5,108.5C 143.833,108.5 142.167,108.5 140.5,108.5 Z"/></g>
<g><path style="opacity:1" fill="#5ebda5" d="M 101.5,108.5 C 101.721,109.735 102.388,110.735 103.5,111.5C 102.386,116.446 102.219,121.446 103,126.5C 106.248,127.679 106.082,128.679 102.5,129.5C 101.262,132.168 101.262,134.834 102.5,137.5C 100.78,138.934 98.7801,139.767 96.5,140C 101.489,140.499 106.489,140.666 111.5,140.5C 114.167,140.5 116.833,140.5 119.5,140.5C 122.167,140.5 124.833,140.5 127.5,140.5C 138.321,141.495 149.321,141.828 160.5,141.5C 131.833,142.833 103.167,142.833 74.5,141.5C 81.6866,141.825 88.6866,141.491 95.5,140.5C 96.1897,130.993 96.5231,121.326 96.5,111.5C 100.311,111.404 100.311,110.738 96.5,109.5C 98.0453,108.548 99.712,108.215 101.5,108.5 Z"/></g>
<g><path style="opacity:1" fill="#32b08d" d="M 103.5,107.5 C 108.833,107.5 114.167,107.5 119.5,107.5C 119.5,108.167 119.167,108.5 118.5,108.5C 116.143,108.337 113.81,108.503 111.5,109C 111.851,115.536 112.851,121.869 114.5,128C 111.898,128.739 110.231,130.405 109.5,133C 114.366,133.113 115.199,134.613 112,137.5C 111.517,138.448 111.351,139.448 111.5,140.5C 106.489,140.666 101.489,140.499 96.5,140C 98.7801,139.767 100.78,138.934 102.5,137.5C 101.262,134.834 101.262,132.168 102.5,129.5C 106.082,128.679 106.248,127.679 103,126.5C 102.219,121.446 102.386,116.446 103.5,111.5C 102.388,110.735 101.721,109.735 101.5,108.5C 102.492,108.672 103.158,108.338 103.5,107.5 Z"/></g>
<g><path style="opacity:1" fill="#3bb686" d="M 118.5,108.5 C 118.249,114.878 118.583,121.378 119.5,128C 117.947,129.097 116.614,130.43 115.5,132C 121.747,133.239 122.08,135.239 116.5,138C 117.571,138.852 118.571,139.685 119.5,140.5C 116.833,140.5 114.167,140.5 111.5,140.5C 111.351,139.448 111.517,138.448 112,137.5C 115.199,134.613 114.366,133.113 109.5,133C 110.231,130.405 111.898,128.739 114.5,128C 112.851,121.869 111.851,115.536 111.5,109C 113.81,108.503 116.143,108.337 118.5,108.5 Z"/></g>
<g><path style="opacity:1" fill="#5ac570" d="M 133.5,108.5 C 135.833,108.5 138.167,108.5 140.5,108.5C 142.167,108.5 143.833,108.5 145.5,108.5C 144.859,109.482 144.193,110.482 143.5,111.5C 144.286,116.781 144.786,122.115 145,127.5C 145.333,122.5 145.667,117.5 146,112.5C 146.333,117.167 146.667,121.833 147,126.5C 148.583,128.202 148.083,129.536 145.5,130.5C 146.65,132.609 147.984,134.609 149.5,136.5C 146.845,136.975 144.845,138.309 143.5,140.5C 139.818,140.665 136.152,140.499 132.5,140C 133.624,139.751 134.624,139.251 135.5,138.5C 133.979,136.714 133.646,134.881 134.5,133C 133.624,131.414 132.624,129.914 131.5,128.5C 133.407,122.049 134.073,115.383 133.5,108.5 Z"/></g>
<g><path style="opacity:1" fill="#65cc67" d="M 145.5,108.5 C 150.695,108.179 155.695,108.513 160.5,109.5C 160.167,109.5 159.833,109.5 159.5,109.5C 157.167,109.5 154.833,109.5 152.5,109.5C 153.38,116.123 153.713,122.789 153.5,129.5C 150.029,129.899 149.696,131.399 152.5,134C 152.539,135.245 152.205,136.578 151.5,138C 152.056,139.011 152.722,139.844 153.5,140.5C 150.167,140.5 146.833,140.5 143.5,140.5C 144.845,138.309 146.845,136.975 149.5,136.5C 147.984,134.609 146.65,132.609 145.5,130.5C 148.083,129.536 148.583,128.202 147,126.5C 146.667,121.833 146.333,117.167 146,112.5C 145.667,117.5 145.333,122.5 145,127.5C 144.786,122.115 144.286,116.781 143.5,111.5C 144.193,110.482 144.859,109.482 145.5,108.5 Z"/></g>
<g><path style="opacity:1" fill="#159fa4" d="M 74.5,107.5 C 78.5,107.5 82.5,107.5 86.5,107.5C 87.0577,108.79 88.0577,109.623 89.5,110C 85.5588,111.794 83.8921,114.961 84.5,119.5C 84.2708,122.778 84.9374,125.778 86.5,128.5C 85.5,130.167 84.1667,131.5 82.5,132.5C 84.2744,133.187 85.9411,134.02 87.5,135C 83.5,136 83.5,137 87.5,138C 87.1667,138.333 86.8333,138.667 86.5,139C 89.4781,139.696 92.4781,140.196 95.5,140.5C 88.6866,141.491 81.6866,141.825 74.5,141.5C 73.5084,141.672 72.8417,141.338 72.5,140.5C 74.6074,139.532 76.9407,139.198 79.5,139.5C 79.5,138.5 79.5,137.5 79.5,136.5C 77.8333,136.5 76.1667,136.5 74.5,136.5C 74.7458,133.53 76.4124,132.197 79.5,132.5C 79.5,131.5 79.5,130.5 79.5,129.5C 76.7531,129.813 74.0865,129.48 71.5,128.5C 71.8076,127.692 72.3076,127.025 73,126.5C 74.0113,127.337 75.1779,127.67 76.5,127.5C 76.5925,121.484 76.9258,115.484 77.5,109.5C 75.5853,109.784 73.9187,109.451 72.5,108.5C 72.8417,107.662 73.5084,107.328 74.5,107.5 Z"/></g>
<g><path style="opacity:1" fill="#2b9faf" d="M 72.5,108.5 C 73.9187,109.451 75.5853,109.784 77.5,109.5C 76.9258,115.484 76.5925,121.484 76.5,127.5C 75.1779,127.67 74.0113,127.337 73,126.5C 72.3076,127.025 71.8076,127.692 71.5,128.5C 74.0865,129.48 76.7531,129.813 79.5,129.5C 79.5,130.5 79.5,131.5 79.5,132.5C 76.4124,132.197 74.7458,133.53 74.5,136.5C 76.1667,136.5 77.8333,136.5 79.5,136.5C 79.5,137.5 79.5,138.5 79.5,139.5C 76.9407,139.198 74.6074,139.532 72.5,140.5C 69.909,139.746 68.0757,138.079 67,135.5C 65,128.167 65,120.833 67,113.5C 68.0757,110.921 69.909,109.254 72.5,108.5 Z"/></g>
<g><path style="opacity:1" fill="#80d664" d="M 159.5,109.5 C 159.833,109.5 160.167,109.5 160.5,109.5C 162.5,110.167 164.5,110.833 166.5,111.5C 167.79,112.058 168.623,113.058 169,114.5C 169.667,121.167 169.667,127.833 169,134.5C 168.722,135.416 168.222,136.082 167.5,136.5C 165.847,136.66 164.514,137.326 163.5,138.5C 159.299,138.558 158.799,137.558 162,135.5C 163.136,132.904 163.969,130.237 164.5,127.5C 163.5,127.5 162.5,127.5 161.5,127.5C 161.688,129.103 161.188,130.437 160,131.5C 159.843,128.28 160.343,125.113 161.5,122C 161.385,120.105 160.718,118.438 159.5,117C 159.737,114.712 159.737,112.212 159.5,109.5 Z"/></g>
<g><path style="opacity:1" fill="#46ba7f" d="M 119.5,107.5 C 126.5,107.5 133.5,107.5 140.5,107.5C 140.5,107.833 140.5,108.167 140.5,108.5C 138.167,108.5 135.833,108.5 133.5,108.5C 131.473,108.338 129.473,108.505 127.5,109C 127.833,109.333 128.167,109.667 128.5,110C 127.687,116.419 127.187,122.919 127,129.5C 126.097,130.701 124.931,131.535 123.5,132C 124.579,132.956 125.745,133.789 127,134.5C 126.653,136.61 126.82,138.61 127.5,140.5C 124.833,140.5 122.167,140.5 119.5,140.5C 118.571,139.685 117.571,138.852 116.5,138C 122.08,135.239 121.747,133.239 115.5,132C 116.614,130.43 117.947,129.097 119.5,128C 118.583,121.378 118.249,114.878 118.5,108.5C 119.167,108.5 119.5,108.167 119.5,107.5 Z"/></g>
<g><path style="opacity:1" fill="#5ac17a" d="M 133.5,108.5 C 134.073,115.383 133.407,122.049 131.5,128.5C 132.624,129.914 133.624,131.414 134.5,133C 133.646,134.881 133.979,136.714 135.5,138.5C 134.624,139.251 133.624,139.751 132.5,140C 136.152,140.499 139.818,140.665 143.5,140.5C 146.833,140.5 150.167,140.5 153.5,140.5C 157.122,140.678 160.456,140.011 163.5,138.5C 164.514,137.326 165.847,136.66 167.5,136.5C 165.977,139.364 163.643,141.031 160.5,141.5C 149.321,141.828 138.321,141.495 127.5,140.5C 126.82,138.61 126.653,136.61 127,134.5C 125.745,133.789 124.579,132.956 123.5,132C 124.931,131.535 126.097,130.701 127,129.5C 127.187,122.919 127.687,116.419 128.5,110C 128.167,109.667 127.833,109.333 127.5,109C 129.473,108.505 131.473,108.338 133.5,108.5 Z"/></g>
<g><path style="opacity:1" fill="#6fd061" d="M 159.5,109.5 C 159.737,112.212 159.737,114.712 159.5,117C 160.718,118.438 161.385,120.105 161.5,122C 160.343,125.113 159.843,128.28 160,131.5C 161.188,130.437 161.688,129.103 161.5,127.5C 162.5,127.5 163.5,127.5 164.5,127.5C 163.969,130.237 163.136,132.904 162,135.5C 158.799,137.558 159.299,138.558 163.5,138.5C 160.456,140.011 157.122,140.678 153.5,140.5C 152.722,139.844 152.056,139.011 151.5,138C 152.205,136.578 152.539,135.245 152.5,134C 149.696,131.399 150.029,129.899 153.5,129.5C 153.713,122.789 153.38,116.123 152.5,109.5C 154.833,109.5 157.167,109.5 159.5,109.5 Z"/></g>
<g><path style="opacity:1" fill="#20a69a" d="M 86.5,107.5 C 92.1667,107.5 97.8333,107.5 103.5,107.5C 103.158,108.338 102.492,108.672 101.5,108.5C 99.712,108.215 98.0453,108.548 96.5,109.5C 100.311,110.738 100.311,111.404 96.5,111.5C 96.5231,121.326 96.1897,130.993 95.5,140.5C 92.4781,140.196 89.4781,139.696 86.5,139C 86.8333,138.667 87.1667,138.333 87.5,138C 83.5,137 83.5,136 87.5,135C 85.9411,134.02 84.2744,133.187 82.5,132.5C 84.1667,131.5 85.5,130.167 86.5,128.5C 84.9374,125.778 84.2708,122.778 84.5,119.5C 83.8921,114.961 85.5588,111.794 89.5,110C 88.0577,109.623 87.0577,108.79 86.5,107.5 Z"/></g>
<g><path style="opacity:0.016" fill="#f7fdff" d="M 126.5,145.5 C 120.5,145.5 114.5,145.5 108.5,145.5C 108.389,144.883 108.056,144.383 107.5,144C 114.167,143.333 120.833,143.333 127.5,144C 126.944,144.383 126.611,144.883 126.5,145.5 Z"/></g>
<g><path style="opacity:0.58" fill="#beb2fd" d="M 94.5,145.5 C 94.5,145.833 94.5,146.167 94.5,146.5C 89.8333,146.5 85.1667,146.5 80.5,146.5C 73.443,146.24 66.443,146.573 59.5,147.5C 59.6107,146.883 59.944,146.383 60.5,146C 71.8923,144.768 83.2256,144.601 94.5,145.5 Z"/></g>
<g><path style="opacity:0.843" fill="#bb9bee" d="M 59.5,147.5 C 59.5,147.833 59.5,148.167 59.5,148.5C 58.1667,149.5 56.8333,150.5 55.5,151.5C 55.8333,149.167 57.1667,147.833 59.5,147.5 Z"/></g>
<g><path style="opacity:1" fill="#875bfa" d="M 59.5,177.5 C 58.4863,176.326 57.153,175.66 55.5,175.5C 55.5,175.167 55.5,174.833 55.5,174.5C 55.5,166.833 55.5,159.167 55.5,151.5C 56.8333,150.5 58.1667,149.5 59.5,148.5C 61.8484,148.33 64.1817,147.997 66.5,147.5C 70.3443,147.455 71.011,148.621 68.5,151C 70.6044,151.489 70.9378,152.655 69.5,154.5C 69.8868,156.274 70.5535,157.941 71.5,159.5C 70.2599,165.486 70.2599,171.486 71.5,177.5C 67.4576,178.45 63.4576,178.45 59.5,177.5 Z"/></g>
<g><path style="opacity:1" fill="#6daaed" d="M 128.5,146.5 C 133.695,146.179 138.695,146.513 143.5,147.5C 140.143,147.23 137.809,147.896 136.5,149.5C 136.579,151.666 137.246,153.666 138.5,155.5C 137.963,156.741 137.296,157.908 136.5,159C 137.126,165.045 137.793,171.045 138.5,177C 137.5,177.333 136.5,177.667 135.5,178C 136.416,178.278 137.082,178.778 137.5,179.5C 134.167,179.5 130.833,179.5 127.5,179.5C 129.412,178.79 131.079,177.623 132.5,176C 130.905,169.029 131.238,162.196 133.5,155.5C 133.032,153.866 132.032,152.7 130.5,152C 131.376,150.415 132.709,149.415 134.5,149C 132.277,148.434 130.277,147.6 128.5,146.5 Z"/></g>
<g><path style="opacity:1" fill="#7b80f5" d="M 80.5,147.5 C 80.5,147.167 80.5,146.833 80.5,146.5C 85.1667,146.5 89.8333,146.5 94.5,146.5C 96.2646,147.461 98.2646,147.795 100.5,147.5C 102.294,148.857 104.294,150.023 106.5,151C 103.698,153.005 103.031,155.505 104.5,158.5C 103.899,164.387 103.232,170.22 102.5,176C 103.571,176.852 104.571,177.685 105.5,178.5C 104.833,178.5 104.5,178.833 104.5,179.5C 94.1667,179.5 83.8333,179.5 73.5,179.5C 76.9619,178.518 80.6286,178.185 84.5,178.5C 87.7216,178.892 90.7216,178.392 93.5,177C 91.9527,173.902 91.2861,170.569 91.5,167C 91.609,163.965 92.2757,161.131 93.5,158.5C 91.9951,157.158 91.3285,155.492 91.5,153.5C 99.3475,152.251 99.3475,151.585 91.5,151.5C 91.5,150.5 91.5,149.5 91.5,148.5C 87.8648,147.886 84.1981,147.552 80.5,147.5 Z"/></g>
<g><path style="opacity:1" fill="#78a2ee" d="M 111.5,146.5 C 117.167,146.5 122.833,146.5 128.5,146.5C 130.277,147.6 132.277,148.434 134.5,149C 132.709,149.415 131.376,150.415 130.5,152C 132.032,152.7 133.032,153.866 133.5,155.5C 131.238,162.196 130.905,169.029 132.5,176C 131.079,177.623 129.412,178.79 127.5,179.5C 126.833,179.5 126.5,179.833 126.5,180.5C 120.5,180.5 114.5,180.5 108.5,180.5C 92.3246,180.83 76.3246,180.496 60.5,179.5C 64.8333,179.5 69.1667,179.5 73.5,179.5C 83.8333,179.5 94.1667,179.5 104.5,179.5C 110.232,179.717 115.899,179.217 121.5,178C 119.071,177.549 118.904,176.715 121,175.5C 121.806,169.916 121.639,164.416 120.5,159C 121.328,158.085 122.328,157.419 123.5,157C 120.014,155.053 119.681,152.72 122.5,150C 118.985,148.115 115.319,146.949 111.5,146.5 Z"/></g>
<g><path style="opacity:1" fill="#826af8" d="M 80.5,146.5 C 80.5,146.833 80.5,147.167 80.5,147.5C 81.7401,148.973 82.7401,150.64 83.5,152.5C 82.5535,154.059 81.8868,155.726 81.5,157.5C 83.7125,163.527 84.0458,169.694 82.5,176C 83.3805,176.708 84.0472,177.542 84.5,178.5C 80.6286,178.185 76.9619,178.518 73.5,179.5C 69.1667,179.5 64.8333,179.5 60.5,179.5C 60.1667,178.833 59.8333,178.167 59.5,177.5C 63.4576,178.45 67.4576,178.45 71.5,177.5C 70.2599,171.486 70.2599,165.486 71.5,159.5C 70.5535,157.941 69.8868,156.274 69.5,154.5C 70.9378,152.655 70.6044,151.489 68.5,151C 71.011,148.621 70.3443,147.455 66.5,147.5C 64.1817,147.997 61.8484,148.33 59.5,148.5C 59.5,148.167 59.5,147.833 59.5,147.5C 66.443,146.573 73.443,146.24 80.5,146.5 Z"/></g>
<g><path style="opacity:1" fill="#62cce8" d="M 159.5,147.5 C 159.5,147.167 159.5,146.833 159.5,146.5C 164.844,146.334 170.177,146.501 175.5,147C 173.403,148.61 171.07,149.777 168.5,150.5C 170.162,151.327 171.495,152.493 172.5,154C 169.833,154.667 167.167,155.333 164.5,156C 167.37,157.349 170.037,158.349 172.5,159C 171.691,164.417 171.191,169.917 171,175.5C 169.902,176.967 168.402,177.801 166.5,178C 168.473,178.495 170.473,178.662 172.5,178.5C 168.366,179.485 164.032,179.818 159.5,179.5C 159.389,178.883 159.056,178.383 158.5,178C 159.833,177.333 161.167,176.667 162.5,176C 161.5,175.667 160.5,175.333 159.5,175C 160.746,169.388 160.746,163.721 159.5,158C 159.354,155.812 160.354,154.479 162.5,154C 161.01,153.255 160.01,152.088 159.5,150.5C 160.154,149.185 160.154,148.185 159.5,147.5 Z"/></g>
<g><path style="opacity:1" fill="#778cf4" d="M 100.5,147.5 C 103.941,147.301 107.274,147.801 110.5,149C 111.38,150.356 111.714,151.856 111.5,153.5C 108.043,153.667 107.71,154.667 110.5,156.5C 111.81,163.056 111.81,169.556 110.5,176C 111.167,176.667 111.833,177.333 112.5,178C 110.19,178.497 107.857,178.663 105.5,178.5C 104.571,177.685 103.571,176.852 102.5,176C 103.232,170.22 103.899,164.387 104.5,158.5C 103.031,155.505 103.698,153.005 106.5,151C 104.294,150.023 102.294,148.857 100.5,147.5 Z"/></g>
<g><path style="opacity:1" fill="#6bb1ec" d="M 143.5,147.5 C 144.39,157.505 144.39,167.839 143.5,178.5C 141.735,179.461 139.735,179.795 137.5,179.5C 137.082,178.778 136.416,178.278 135.5,178C 136.5,177.667 137.5,177.333 138.5,177C 137.793,171.045 137.126,165.045 136.5,159C 137.296,157.908 137.963,156.741 138.5,155.5C 137.246,153.666 136.579,151.666 136.5,149.5C 137.809,147.896 140.143,147.23 143.5,147.5 Z"/></g>
<g><path style="opacity:1" fill="#73bdee" d="M 94.5,146.5 C 94.5,146.167 94.5,145.833 94.5,145.5C 99.1667,145.5 103.833,145.5 108.5,145.5C 114.5,145.5 120.5,145.5 126.5,145.5C 137.5,145.5 148.5,145.5 159.5,145.5C 159.5,145.833 159.5,146.167 159.5,146.5C 159.5,146.833 159.5,147.167 159.5,147.5C 157.958,148.301 156.292,148.634 154.5,148.5C 153.849,154.536 153.516,160.702 153.5,167C 153.286,170.569 153.953,173.902 155.5,177C 151.637,178.354 147.637,178.854 143.5,178.5C 144.39,167.839 144.39,157.505 143.5,147.5C 138.695,146.513 133.695,146.179 128.5,146.5C 122.833,146.5 117.167,146.5 111.5,146.5C 105.833,146.5 100.167,146.5 94.5,146.5 Z"/></g>
<g><path style="opacity:1" fill="#6cc3e9" d="M 159.5,147.5 C 160.154,148.185 160.154,149.185 159.5,150.5C 160.01,152.088 161.01,153.255 162.5,154C 160.354,154.479 159.354,155.812 159.5,158C 160.746,163.721 160.746,169.388 159.5,175C 160.5,175.333 161.5,175.667 162.5,176C 161.167,176.667 159.833,177.333 158.5,178C 159.056,178.383 159.389,178.883 159.5,179.5C 156.941,179.198 154.607,179.532 152.5,180.5C 144.167,180.5 135.833,180.5 127.5,180.5C 127.167,180.5 126.833,180.5 126.5,180.5C 126.5,179.833 126.833,179.5 127.5,179.5C 130.833,179.5 134.167,179.5 137.5,179.5C 139.735,179.795 141.735,179.461 143.5,178.5C 147.637,178.854 151.637,178.354 155.5,177C 153.953,173.902 153.286,170.569 153.5,167C 153.516,160.702 153.849,154.536 154.5,148.5C 156.292,148.634 157.958,148.301 159.5,147.5 Z"/></g>
<g><path style="opacity:1" fill="#7594f1" d="M 94.5,146.5 C 100.167,146.5 105.833,146.5 111.5,146.5C 115.319,146.949 118.985,148.115 122.5,150C 119.681,152.72 120.014,155.053 123.5,157C 122.328,157.419 121.328,158.085 120.5,159C 121.639,164.416 121.806,169.916 121,175.5C 118.904,176.715 119.071,177.549 121.5,178C 115.899,179.217 110.232,179.717 104.5,179.5C 104.5,178.833 104.833,178.5 105.5,178.5C 107.857,178.663 110.19,178.497 112.5,178C 111.833,177.333 111.167,176.667 110.5,176C 111.81,169.556 111.81,163.056 110.5,156.5C 107.71,154.667 108.043,153.667 111.5,153.5C 111.714,151.856 111.38,150.356 110.5,149C 107.274,147.801 103.941,147.301 100.5,147.5C 98.2646,147.795 96.2646,147.461 94.5,146.5 Z"/></g>
<g><path style="opacity:0.945" fill="#b493e3" d="M 55.5,151.5 C 55.5,159.167 55.5,166.833 55.5,174.5C 54.7784,174.082 54.2784,173.416 54,172.5C 53.3333,166.167 53.3333,159.833 54,153.5C 54.2784,152.584 54.7784,151.918 55.5,151.5 Z"/></g>
<g><path style="opacity:1" fill="#7e77f8" d="M 80.5,147.5 C 84.1981,147.552 87.8648,147.886 91.5,148.5C 91.5,149.5 91.5,150.5 91.5,151.5C 99.3475,151.585 99.3475,152.251 91.5,153.5C 91.3285,155.492 91.9951,157.158 93.5,158.5C 92.2757,161.131 91.609,163.965 91.5,167C 91.2861,170.569 91.9527,173.902 93.5,177C 90.7216,178.392 87.7216,178.892 84.5,178.5C 84.0472,177.542 83.3805,176.708 82.5,176C 84.0458,169.694 83.7125,163.527 81.5,157.5C 81.8868,155.726 82.5535,154.059 83.5,152.5C 82.7401,150.64 81.7401,148.973 80.5,147.5 Z"/></g>
<g><path style="opacity:1" fill="#61d8e6" d="M 159.5,146.5 C 159.5,146.167 159.5,145.833 159.5,145.5C 165.176,145.334 170.843,145.501 176.5,146C 179.079,147.076 180.746,148.909 181.5,151.5C 181.666,157.842 181.5,164.175 181,170.5C 178.058,172.328 176.891,174.995 177.5,178.5C 175.833,178.5 174.167,178.5 172.5,178.5C 170.473,178.662 168.473,178.495 166.5,178C 168.402,177.801 169.902,176.967 171,175.5C 171.191,169.917 171.691,164.417 172.5,159C 170.037,158.349 167.37,157.349 164.5,156C 167.167,155.333 169.833,154.667 172.5,154C 171.495,152.493 170.162,151.327 168.5,150.5C 171.07,149.777 173.403,148.61 175.5,147C 170.177,146.501 164.844,146.334 159.5,146.5 Z"/></g>
<g><path style="opacity:0.961" fill="#9adfe5" d="M 181.5,151.5 C 188.637,177.033 178.97,186.7 152.5,180.5C 154.607,179.532 156.941,179.198 159.5,179.5C 164.032,179.818 168.366,179.485 172.5,178.5C 174.167,178.5 175.833,178.5 177.5,178.5C 176.891,174.995 178.058,172.328 181,170.5C 181.5,164.175 181.666,157.842 181.5,151.5 Z"/></g>
<g><path style="opacity:1" fill="#ab90e7" d="M 55.5,175.5 C 57.153,175.66 58.4863,176.326 59.5,177.5C 59.8333,178.167 60.1667,178.833 60.5,179.5C 58.2512,178.92 56.5846,177.587 55.5,175.5 Z"/></g>
<g><path style="opacity:0.018" fill="#fbf5ef" d="M 108.5,180.5 C 114.5,180.5 120.5,180.5 126.5,180.5C 126.833,180.5 127.167,180.5 127.5,180.5C 127.196,181.15 126.863,181.817 126.5,182.5C 147.329,183.167 167.996,183.833 188.5,184.5C 141.5,184.5 94.5,184.5 47.5,184.5C 73.3301,183.668 99.3301,183.168 125.5,183C 119.412,183.126 113.745,182.292 108.5,180.5 Z"/></g>
<g><path style="opacity:1" fill="#fc7746" d="M 127.5,186.5 C 127.5,186.167 127.5,185.833 127.5,185.5C 138.581,185.19 149.581,185.523 160.5,186.5C 162.969,187.317 165.635,187.817 168.5,188C 166.479,188.401 165.145,189.568 164.5,191.5C 165.145,197.032 165.812,202.532 166.5,208C 163.246,209.881 162.912,212.047 165.5,214.5C 168.977,215.167 172.311,215.834 175.5,216.5C 159.868,218.485 143.868,219.151 127.5,218.5C 127.5,217.833 127.5,217.167 127.5,216.5C 133.509,216.666 139.509,216.499 145.5,216C 143.45,214.364 142.45,212.198 142.5,209.5C 146.701,209.558 147.201,208.558 144,206.5C 143.501,201.511 143.334,196.511 143.5,191.5C 148.794,191.318 148.794,190.818 143.5,190C 147.185,189.086 146.852,188.419 142.5,188C 143.167,187.667 143.833,187.333 144.5,187C 138.843,186.501 133.176,186.334 127.5,186.5 Z"/></g>
<g><path style="opacity:1" fill="#fe8448" d="M 160.5,186.5 C 169.839,186.334 179.173,186.5 188.5,187C 187.328,187.419 186.328,188.085 185.5,189C 187,189.833 188.167,191 189,192.5C 189.193,197.75 189.693,202.917 190.5,208C 189.789,209.255 188.956,210.421 188,211.5C 186.535,210.631 185.369,211.131 184.5,213C 185.444,214.477 186.777,215.477 188.5,216C 184.179,216.499 179.846,216.666 175.5,216.5C 172.311,215.834 168.977,215.167 165.5,214.5C 162.912,212.047 163.246,209.881 166.5,208C 165.812,202.532 165.145,197.032 164.5,191.5C 165.145,189.568 166.479,188.401 168.5,188C 165.635,187.817 162.969,187.317 160.5,186.5 Z"/></g>
<g><path style="opacity:1" fill="#fe563b" d="M 94.5,186.5 C 101.841,186.334 109.174,186.5 116.5,187C 114.744,187.202 113.078,187.702 111.5,188.5C 117.982,190.279 117.982,191.613 111.5,192.5C 111.602,197.878 111.602,203.045 111.5,208C 112.744,208.456 113.577,207.956 114,206.5C 114.483,207.448 114.649,208.448 114.5,209.5C 112.897,209.312 111.563,209.812 110.5,211C 111.38,212.356 111.714,213.856 111.5,215.5C 112.552,215.351 113.552,215.517 114.5,216C 97.5423,217.41 80.5423,217.91 63.5,217.5C 63.5,217.167 63.5,216.833 63.5,216.5C 66.5,216.5 69.5,216.5 72.5,216.5C 78.8421,216.666 85.1754,216.5 91.5,216C 92.3802,214.644 92.7135,213.144 92.5,211.5C 91.448,211.649 90.448,211.483 89.5,211C 91.0009,209.748 92.6675,208.748 94.5,208C 92.8992,202.761 91.8992,197.261 91.5,191.5C 90.6919,191.192 90.0253,190.692 89.5,190C 91.8333,189.667 94.1667,189.333 96.5,189C 95.6195,188.292 94.9528,187.458 94.5,186.5 Z"/></g>
<g><path style="opacity:1" fill="#fe6b41" d="M 127.5,186.5 C 133.176,186.334 138.843,186.501 144.5,187C 143.833,187.333 143.167,187.667 142.5,188C 146.852,188.419 147.185,189.086 143.5,190C 148.794,190.818 148.794,191.318 143.5,191.5C 143.334,196.511 143.501,201.511 144,206.5C 147.201,208.558 146.701,209.558 142.5,209.5C 142.45,212.198 143.45,214.364 145.5,216C 139.509,216.499 133.509,216.666 127.5,216.5C 124.361,216.086 122.028,214.42 120.5,211.5C 121.32,209.889 122.654,209.222 124.5,209.5C 124.83,203.132 124.496,196.798 123.5,190.5C 122.328,190.081 121.328,189.415 120.5,188.5C 122.51,186.829 124.843,186.162 127.5,186.5 Z"/></g>
<g><path style="opacity:1" fill="#e56e68" d="M 44.5,185.5 C 44.5,185.833 44.5,186.167 44.5,186.5C 42.5,188.167 40.5,189.833 38.5,191.5C 39.5,188.5 41.5,186.5 44.5,185.5 Z"/></g>
<g><path style="opacity:1" fill="#f85d3e" d="M 44.5,186.5 C 44.5,186.167 44.5,185.833 44.5,185.5C 72.1667,185.5 99.8333,185.5 127.5,185.5C 127.5,185.833 127.5,186.167 127.5,186.5C 124.843,186.162 122.51,186.829 120.5,188.5C 121.328,189.415 122.328,190.081 123.5,190.5C 124.496,196.798 124.83,203.132 124.5,209.5C 122.654,209.222 121.32,209.889 120.5,211.5C 122.028,214.42 124.361,216.086 127.5,216.5C 127.5,217.167 127.5,217.833 127.5,218.5C 99.8333,218.5 72.1667,218.5 44.5,218.5C 44.5,218.167 44.5,217.833 44.5,217.5C 50.8333,217.5 57.1667,217.5 63.5,217.5C 80.5423,217.91 97.5423,217.41 114.5,216C 113.552,215.517 112.552,215.351 111.5,215.5C 111.714,213.856 111.38,212.356 110.5,211C 111.563,209.812 112.897,209.312 114.5,209.5C 114.649,208.448 114.483,207.448 114,206.5C 113.577,207.956 112.744,208.456 111.5,208C 111.602,203.045 111.602,197.878 111.5,192.5C 117.982,191.613 117.982,190.279 111.5,188.5C 113.078,187.702 114.744,187.202 116.5,187C 109.174,186.5 101.841,186.334 94.5,186.5C 83.1667,186.5 71.8333,186.5 60.5,186.5C 55.1667,186.5 49.8333,186.5 44.5,186.5 Z"/></g>
<g><path style="opacity:1" fill="#f69061" d="M 44.5,185.5 C 45.209,184.596 46.209,184.263 47.5,184.5C 94.5,184.5 141.5,184.5 188.5,184.5C 189.959,184.433 191.292,184.766 192.5,185.5C 192.675,187.844 193.842,189.511 196,190.5C 196.5,197.826 196.666,205.159 196.5,212.5C 195.791,213.404 194.791,213.737 193.5,213.5C 193.608,215.514 192.942,217.18 191.5,218.5C 142.402,219.83 93.4023,219.83 44.5,218.5C 72.1667,218.5 99.8333,218.5 127.5,218.5C 143.868,219.151 159.868,218.485 175.5,216.5C 179.846,216.666 184.179,216.499 188.5,216C 186.777,215.477 185.444,214.477 184.5,213C 185.369,211.131 186.535,210.631 188,211.5C 188.956,210.421 189.789,209.255 190.5,208C 189.693,202.917 189.193,197.75 189,192.5C 188.167,191 187,189.833 185.5,189C 186.328,188.085 187.328,187.419 188.5,187C 179.173,186.5 169.839,186.334 160.5,186.5C 149.581,185.523 138.581,185.19 127.5,185.5C 99.8333,185.5 72.1667,185.5 44.5,185.5 Z"/></g>
<g><path style="opacity:1" fill="#fc3e38" d="M 44.5,186.5 C 49.8333,186.5 55.1667,186.5 60.5,186.5C 60.5,187.167 60.8333,187.5 61.5,187.5C 61.6107,188.117 61.944,188.617 62.5,189C 59.7695,189.728 57.1029,189.562 54.5,188.5C 53.8333,189.5 53.1667,190.5 52.5,191.5C 51.7383,199.51 51.0716,207.51 50.5,215.5C 54.7853,216.295 59.1186,216.628 63.5,216.5C 63.5,216.833 63.5,217.167 63.5,217.5C 57.1667,217.5 50.8333,217.5 44.5,217.5C 43.3406,215.75 41.674,214.75 39.5,214.5C 38.7321,213.737 38.2321,212.737 38,211.5C 37.1794,204.654 37.346,197.987 38.5,191.5C 40.5,189.833 42.5,188.167 44.5,186.5 Z"/></g>
<g><path style="opacity:1" fill="#fe3d34" d="M 61.5,187.5 C 64.8499,187.335 68.1832,187.502 71.5,188C 70.8333,188.333 70.1667,188.667 69.5,189C 70.8333,189.333 72.1667,189.667 73.5,190C 72.2243,192.724 71.5577,195.724 71.5,199C 71.5413,202.221 71.8747,205.388 72.5,208.5C 69.9557,209.937 69.9557,211.437 72.5,213C 71.8288,213.986 71.8288,215.153 72.5,216.5C 69.5,216.5 66.5,216.5 63.5,216.5C 59.1186,216.628 54.7853,216.295 50.5,215.5C 51.0716,207.51 51.7383,199.51 52.5,191.5C 53.1667,190.5 53.8333,189.5 54.5,188.5C 57.1029,189.562 59.7695,189.728 62.5,189C 61.944,188.617 61.6107,188.117 61.5,187.5 Z"/></g>
<g><path style="opacity:1" fill="#fe4b38" d="M 60.5,186.5 C 71.8333,186.5 83.1667,186.5 94.5,186.5C 94.9528,187.458 95.6195,188.292 96.5,189C 94.1667,189.333 91.8333,189.667 89.5,190C 90.0253,190.692 90.6919,191.192 91.5,191.5C 91.8992,197.261 92.8992,202.761 94.5,208C 92.6675,208.748 91.0009,209.748 89.5,211C 90.448,211.483 91.448,211.649 92.5,211.5C 92.7135,213.144 92.3802,214.644 91.5,216C 85.1754,216.5 78.8421,216.666 72.5,216.5C 71.8288,215.153 71.8288,213.986 72.5,213C 69.9557,211.437 69.9557,209.937 72.5,208.5C 71.8747,205.388 71.5413,202.221 71.5,199C 71.5577,195.724 72.2243,192.724 73.5,190C 72.1667,189.667 70.8333,189.333 69.5,189C 70.1667,188.667 70.8333,188.333 71.5,188C 68.1832,187.502 64.8499,187.335 61.5,187.5C 60.8333,187.5 60.5,187.167 60.5,186.5 Z"/></g>
<g><path style="opacity:1" fill="#f0a579" d="M 192.5,185.5 C 194.836,187.004 196.669,189.004 198,191.5C 198.795,198.58 198.628,205.58 197.5,212.5C 197.167,212.5 196.833,212.5 196.5,212.5C 196.666,205.159 196.5,197.826 196,190.5C 193.842,189.511 192.675,187.844 192.5,185.5 Z"/></g>
<g><path style="opacity:1" fill="#f5c0a0" d="M 196.5,212.5 C 196.833,212.5 197.167,212.5 197.5,212.5C 196.5,215.5 194.5,217.5 191.5,218.5C 192.942,217.18 193.608,215.514 193.5,213.5C 194.791,213.737 195.791,213.404 196.5,212.5 Z"/></g>
<g><path style="opacity:1" fill="#ea7a78" d="M 39.5,214.5 C 41.674,214.75 43.3406,215.75 44.5,217.5C 44.5,217.833 44.5,218.167 44.5,218.5C 42.2512,217.92 40.5846,216.587 39.5,214.5 Z"/></g>
</svg>
